<?xml version="1.0" encoding="utf-8"?>
<!-- Generator: Adobe Illustrator 17.0.0, SVG Export Plug-In . SVG Version: 6.00 Build 0)  -->
<!DOCTYPE svg PUBLIC "-//W3C//DTD SVG 1.1//EN" "http://www.w3.org/Graphics/SVG/1.1/DTD/svg11.dtd">
<svg version="1.1" id="Layer_1" xmlns="http://www.w3.org/2000/svg" xmlns:xlink="http://www.w3.org/1999/xlink" x="0px" y="0px"
	 width="446.921px" height="481.143px" viewBox="0 0 446.921 481.143" enable-background="new 0 0 446.921 481.143"
	 xml:space="preserve">
<g>
	<g>
		<g>
			<path fill="none" stroke="#FFFFFF" stroke-width="3" stroke-miterlimit="10" d="M417.59,372.565v-13.486
				c0-4.855-2.124-9.407-5.826-12.442c-27.25-22.395-56.746-37.264-62.39-40.056c-2.61-1.275-4.188-3.824-4.188-6.737v-43.03
				c0-1.821,0.91-3.581,2.428-4.552c4.066-2.731,6.555-7.283,6.555-12.138v-44.547c0-19.118-15.537-34.654-34.654-34.654h-9.589
				c-19.118,0-34.654,15.537-34.654,34.654v44.608c0,4.916,2.428,9.407,6.555,12.138c1.517,1.032,2.428,2.731,2.428,4.552v43.03
				c0,2.913-1.639,5.462-4.188,6.737c-5.644,2.731-35.201,17.661-62.39,40.056c-3.702,3.035-5.826,7.586-5.826,12.442v82.478"/>
		</g>
		<path fill="none" stroke="#FFFFFF" stroke-width="3" stroke-linecap="round" stroke-linejoin="round" stroke-miterlimit="10" d="
			M77.551,170.721c0,30.205,24.486,54.69,54.69,54.69h56.835c16.164,0,30.838,7.908,54.69,28.916c0-22.557,0-69.566,0-83.607l0,0
			c0-30.205-24.486-54.69-54.69-54.69h-56.835C102.037,116.03,77.551,140.516,77.551,170.721L77.551,170.721z"/>
		<path fill="none" stroke="#FFFFFF" stroke-width="3" stroke-linecap="round" stroke-linejoin="round" stroke-miterlimit="10" d="
			M205.665,182.993c-7.302-16.539-23.847-28.083-43.088-28.083c-19.5,0-36.231,11.856-43.378,28.753"/>
	</g>
	<path fill="none" stroke="#FA671D" stroke-width="3" stroke-miterlimit="10" d="M218.6,26.253
		c122.633,0,286.027,260.227,199.943,346.311c-83.703,83.703-333.656,100.427-399.886,0S100.661,26.253,218.6,26.253z"/>
</g>
</svg>
