<svg xmlns="http://www.w3.org/2000/svg" viewBox="0 0 174.29 99.26"><defs><style>.cls-1,.cls-3{fill:#fc671d;}.cls-1{stroke:#fc671d;stroke-miterlimit:10;stroke-width:3px;}.cls-2{fill:#2c006a;}</style></defs><title>digix-roxo-laranja-1</title><g id="Layer_2" data-name="Layer 2"><g id="Layer_1-2" data-name="Layer 1"><path class="cls-1" d="M52.44,1.5C72,1.5,121.55,64.26,100,83.93c-20.82,19-78.73,17.83-95.18,0C-11.08,66.65,34,1.5,52.44,1.5Z"/><path class="cls-2" d="M52.7,41.49a17.37,17.37,0,0,1,12.17,4.38,14.47,14.47,0,0,1,4.75,11.2,14.79,14.79,0,0,1-4.75,11.39A17.37,17.37,0,0,1,52.7,72.84H38.8V41.49Zm0,24.34a8.87,8.87,0,0,0,6.41-2.49,8.52,8.52,0,0,0,2.58-6.27A8,8,0,0,0,59.11,51,8.87,8.87,0,0,0,52.7,48.5H46.59V65.83Z"/><path class="cls-2" d="M121.16,55.23H107.62a3.11,3.11,0,0,0,0,6.22h5.75a8.4,8.4,0,0,1-8,4.79,8.89,8.89,0,0,1-6.59-2.58,8.76,8.76,0,0,1-2.49-6.36,9.27,9.27,0,0,1,2.49-6.73A8.71,8.71,0,0,1,105.34,48c3.73,0,6.13,1.57,7.28,4.66h8.21A13,13,0,0,0,115.48,44a17.07,17.07,0,0,0-10.33-3.18,16.4,16.4,0,0,0-12,4.7,15.94,15.94,0,0,0-4.75,11.94,15.37,15.37,0,0,0,4.7,11.43,16.44,16.44,0,0,0,11.67,4.56h.32c.39,0,.77,0,1.15,0C123.78,72.53,121.16,55.23,121.16,55.23Z"/><path class="cls-2" d="M75.09,45a3.81,3.81,0,1,1,7.62,0V69.34a3.81,3.81,0,0,1-7.62,0Z"/><path class="cls-2" d="M127.59,45a3.81,3.81,0,0,1,7.62,0V69.34a3.81,3.81,0,0,1-7.62,0Z"/><path class="cls-3" d="M163.61,57.1l9.56-9.48a3.81,3.81,0,1,0-5.39-5.39l-9.56,9.48Z"/><path class="cls-2" d="M173.17,66.67,148.74,42.24a3.81,3.81,0,0,0-5.39,5.39l9.52,9.52-9.52,9.52a3.81,3.81,0,0,0,5.39,5.39l9.52-9.52,9.52,9.52a3.81,3.81,0,1,0,5.39-5.39Z"/></g></g></svg>