<svg version="1.1" xmlns="http://www.w3.org/2000/svg" xmlns:xlink="http://www.w3.org/1999/xlink" width="500" height="294"><defs><clipPath id="clip-1"><rect x="-67.74" y="-16.32" width="135.48" height="32.64" fill="none"/></clipPath><symbol viewBox="-67.74,-16.32,135.48,32.64" id="symbol-1"><g clip-path="url(#clip-1)" fill="none" fill-rule="nonzero" stroke="none" stroke-width="1" stroke-linecap="butt" stroke-linejoin="miter" stroke-miterlimit="10" stroke-dasharray="" stroke-dashoffset="0" font-family="none" font-weight="none" font-size="none" text-anchor="none" style="mix-blend-mode: normal"><g id="Layer_2"><g id="Layer_1-2"><path d="M-53.84,-15.68c4.46653,-0.16658 8.82538,1.39501 12.17,4.36c3.15205,2.85406 4.88921,6.95009 4.75,11.2c0.15194,4.30742 -1.58267,8.46682 -4.75,11.39c-3.33696,2.9831 -7.69666,4.56291 -12.17,4.41l-13.9,0l0,-31.36z M-53.84,8.68c2.38457,0.06571 4.69509,-0.83182 6.41,-2.49c1.69037,-1.64308 2.62444,-3.91308 2.58,-6.27c0.05869,-2.30711 -0.88183,-4.52717 -2.58,-6.09c-1.71328,-1.66183 -4.024,-2.56304 -6.41,-2.5l-6.11,0l0,17.35z" fill="#ffffff"/><path d="M14.62,-1.94l-13.54,0c-1.71761,0 -3.11,1.39239 -3.11,3.11c0,1.71761 1.39239,3.11 3.11,3.11l5.75,0c-1.45432,3.06602 -4.6106,4.95584 -8,4.79c-2.45073,0.08614 -4.82819,-0.84386 -6.57,-2.57c-1.65632,-1.69578 -2.5547,-3.99042 -2.49,-6.36c-0.10714,-2.48664 0.79017,-4.91191 2.49,-6.73c1.72304,-1.74333 4.1009,-2.67995 6.55,-2.58c3.73,0 6.13,1.57 7.28,4.66l8.17,0c-0.54227,-3.47933 -2.47281,-6.58984 -5.35,-8.62c-2.99574,-2.14619 -6.60558,-3.26528 -10.29,-3.19c-4.47377,-0.13648 -8.80895,1.56147 -12,4.7c-3.18851,3.13722 -4.91212,7.46982 -4.75,11.94c-0.10157,4.29978 1.60311,8.44542 4.7,11.43c3.14052,3.00578 7.3437,4.64534 11.69,4.56l0.32,0c0.39,0 0.77,0 1.15,0c17.53,-0.95 14.89,-18.25 14.89,-18.25z" fill="#ffffff"/><path d="M-31.45,-12.22c0,-2.1042 1.7058,-3.81 3.81,-3.81c2.1042,0 3.81,1.7058 3.81,3.81l0,24.39c0,2.1042 -1.7058,3.81 -3.81,3.81c-2.1042,0 -3.81,-1.7058 -3.81,-3.81z" fill="#ffffff"/><path d="M21.05,-12.22c0,-2.1042 1.7058,-3.81 3.81,-3.81c2.1042,0 3.81,1.7058 3.81,3.81l0,24.39c0,2.1042 -1.7058,3.81 -3.81,3.81c-2.1042,0 -3.81,-1.7058 -3.81,-3.81z" fill="#ffffff"/><path d="M57.07,-0.06l9.56,-9.48c1.05296,-0.93957 1.50034,-2.38419 1.16268,-3.7544c-0.33766,-1.37022 -1.40503,-2.44157 -2.77398,-2.78431c-1.36895,-0.34275 -2.81523,0.09926 -3.7587,1.14872l-9.56,9.48z" id="x" fill="#ff671d"/><path d="M66.63,9.5l-24.43,-24.43c-1.48841,-1.48841 -3.90159,-1.48841 -5.39,0c-1.48841,1.48841 -1.48841,3.90159 0,5.39l9.52,9.52l-9.52,9.52c-1.48841,1.48841 -1.48841,3.90159 0,5.39c1.48841,1.48841 3.90159,1.48841 5.39,0l9.52,-9.52l9.54,9.52c1.48841,1.48841 3.90159,1.48841 5.39,0c1.48841,-1.48841 1.48841,-3.90159 0,-5.39z" fill="#ffffff"/></g></g></g></symbol></defs><g fill="none" fill-rule="nonzero" stroke="none" stroke-width="none" stroke-linecap="butt" stroke-linejoin="miter" stroke-miterlimit="10" stroke-dasharray="" stroke-dashoffset="0" font-family="none" font-weight="none" font-size="none" text-anchor="none" style="mix-blend-mode: normal"><path d="M29.4,235.2c49.60325,-15.65798 197.74707,-7.18122 235.2,0c37.45293,7.18122 -82.91678,-182.61135 -132.3,-182.28c-49.38322,0.33135 -152.50325,197.93798 -102.9,182.28z" fill="#fc671d" stroke="#fc671d" stroke-width="11.76"/><use x="44.02471" y="49.56235" transform="scale(2.499,2.499)" xlink:href="#symbol-1" width="135.48" height="32.64" overflow="visible" fill="none" stroke="none" stroke-width="1"/></g></svg>